<svg width="50" height="50" viewBox="0 0 50 50" fill="none" xmlns="http://www.w3.org/2000/svg">
<path d="M8.33314 31.0396C6.78531 29.4582 5.61766 27.5452 4.91863 25.4457C4.2196 23.3462 4.00753 21.1151 4.29848 18.9215C4.58943 16.7278 5.37576 14.6292 6.59792 12.7844C7.82009 10.9397 9.44603 9.39732 11.3526 8.27407C13.2591 7.15081 15.3963 6.47615 17.6022 6.30121C19.8082 6.12626 22.025 6.4556 24.0847 7.26429C26.1445 8.07298 27.9933 9.33982 29.4909 10.9688C30.9886 12.5978 32.0959 14.5463 32.729 16.6667H36.4581C38.4696 16.6664 40.4278 17.3132 42.0435 18.5113C43.6592 19.7095 44.8467 21.3955 45.4306 23.3204C46.0144 25.2453 45.9637 27.3069 45.2859 29.2008C44.6081 31.0946 43.3391 32.7202 41.6665 33.8375" stroke="#0B88DF" stroke-width="2" stroke-linecap="round" stroke-linejoin="round"/>
<path d="M25 25V43.75" stroke="#0B88DF" stroke-width="2" stroke-linecap="round" stroke-linejoin="round"/>
<path d="M33.3332 33.3333L24.9998 25L16.6665 33.3333" stroke="#0B88DF" stroke-width="2" stroke-linecap="round" stroke-linejoin="round"/>
</svg>
